<svg width="1800" height="520" viewBox="0 0 1800 520" xmlns="http://www.w3.org/2000/svg" role="img" aria-label="Clinicafy">
  <defs>
    <linearGradient id="clinicafyBlueWord" x1="44" y1="430" x2="430" y2="44" gradientUnits="userSpaceOnUse">
      <stop stop-color="#1677FF"/>
      <stop offset="0.55" stop-color="#2CC7FF"/>
      <stop offset="1" stop-color="#1677FF"/>
    </linearGradient>
  </defs>
  <rect width="1800" height="520" rx="96" fill="#FFFFFF"/>
  <g transform="translate(72 72) scale(.39)">
    <path d="M380 128h264c96.8 0 176 79.2 176 176v120h132v264H820v120c0 96.8-79.2 176-176 176H380c-96.8 0-176-79.2-176-176V688H72V424h132V304c0-96.8 79.2-176 176-176Zm0 104c-39.6 0-72 32.4-72 72v228H176v48h240v228c0 39.6 32.4 72 72 72h264c39.6 0 72-32.4 72-72V580h240v-48H716V304c0-39.6-32.4-72-72-72H380Z" fill="url(#clinicafyBlueWord)"/>
    <path d="M468 372h88v280h-88zM372 468h280v88H372z" fill="#1677FF"/>
  </g>
  <text x="506" y="326" font-family="Inter, Arial, Helvetica, sans-serif" font-size="168" font-weight="900" letter-spacing="-8">
    <tspan fill="#0D183D">Clinica</tspan><tspan fill="#1677FF">fy</tspan>
  </text>
</svg>